Coordinates
version=1
nRows=17
nColumns=40
inDegrees=yes

Units are S.I. units (second, meters, Newtons, ...)
Angles are in degrees.

endheader
time	pelvis_tilt	pelvis_list	pelvis_rotation	pelvis_tx	pelvis_ty	pelvis_tz	hip_flexion_r	hip_adduction_r	hip_rotation_r	knee_angle_r	knee_angle_r_beta	ankle_angle_r	subtalar_angle_r	mtp_angle_r	hip_flexion_l	hip_adduction_l	hip_rotation_l	knee_angle_l	knee_angle_l_beta	ankle_angle_l	subtalar_angle_l	mtp_angle_l	lumbar_extension	lumbar_bending	lumbar_rotation	arm_flex_r	arm_add_r	arm_rot_r	elbow_flex_r	pro_sup_r	wrist_flex_r	wrist_dev_r	arm_flex_l	arm_add_l	arm_rot_l	elbow_flex_l	pro_sup_l	wrist_flex_l	wrist_dev_l
     22.83000000	     -3.09790811	     -5.66441327	      0.30290338	      1.06611020	      0.93048558	      0.40989374	     28.52088755	     -6.00299398	     -5.17311543	     67.11092659	     67.11092659	     -3.51490914	    -13.99513961	     -1.07744631	     16.27671591	     -7.01178488	     -6.55207497	     25.78722640	     25.78722640	     14.34088423	    -12.13455764	      2.20155718	    -11.58239330	      4.58180573	      1.96356345	      6.65855204	    -13.46660043	     -6.53515852	     33.23768486	     45.01040436	      0.00000000	      0.00000000	     15.03831721	    -16.89534009	      2.88570461	     41.81976851	     45.17614660	      0.00000000	      0.00000000
     22.84328571	     -3.22496044	     -5.73483331	     -0.03660574	      1.06502076	      0.93118414	      0.40950532	     29.36118197	     -5.78527177	     -5.01326655	     65.62911526	     65.62911526	     -3.13014020	    -13.72641712	     -1.10049835	     15.87806090	     -7.08622139	     -6.82172335	     25.53519336	     25.53519336	     14.49413177	    -12.18175618	      2.21417517	    -11.50308979	      4.67106563	      1.46927118	      6.11573046	    -13.46899175	     -6.55461079	     32.99558510	     45.01941079	      0.00000000	      0.00000000	     15.75016637	    -17.22533486	      2.80350372	     42.08197933	     45.19696730	      0.00000000	      0.00000000
     22.85657143	     -3.16838426	     -5.94190908	     -0.38173927	      1.06420891	      0.93258598	      0.40924356	     29.72234467	     -5.47670179	     -5.09693136	     63.67287685	     63.67287685	     -3.14483814	    -13.49511573	     -2.12646768	     14.81341351	     -7.30217538	     -7.33001887	     24.41626863	     24.41626863	     14.40279610	    -11.74176672	      1.83267592	    -11.71389862	      4.89768855	      1.74664141	      5.71087342	    -13.29968767	     -7.91734057	     30.78293029	     45.29194715	      0.00000000	      0.00000000	     16.65814105	    -17.44380074	      3.09960333	     42.99286940	     45.29444874	      0.00000000	      0.00000000
     22.86985714	     -3.26528804	     -6.08788703	     -0.70686977	      1.06319644	      0.93343961	      0.40895857	     30.23216125	     -5.20277165	     -5.13256632	     61.64223477	     61.64223477	     -2.78115033	    -13.11378870	     -2.04205431	     14.19042221	     -7.41997467	     -7.59804212	     23.77982717	     23.77982717	     14.48955297	    -11.67973181	      1.93854955	    -11.71974212	      5.08911348	      1.58403499	      5.03134685	    -13.34314902	     -8.02365180	     30.38614321	     45.31805945	      0.00000000	      0.00000000	     17.42113382	    -17.69284532	      2.99752190	     43.43767949	     45.32618741	      0.00000000	      0.00000000
     22.88314286	     -3.34758469	     -6.21922427	     -1.04729914	      1.06215065	      0.93419937	      0.40881866	     30.60322634	     -4.91824945	     -5.18956569	     59.32399562	     59.32399562	     -2.38382613	    -12.70101732	     -1.93755284	     13.56406843	     -7.53547377	     -7.90597912	     23.16175942	     23.16175942	     14.57970674	    -11.59348555	      1.98572110	    -11.77654275	      5.23819944	      1.54115081	      4.40838902	    -13.41220714	     -8.16434891	     29.91401378	     45.35056603	      0.00000000	      0.00000000	     18.20612716	    -17.89402490	      2.90035870	     43.98228020	     45.35807927	      0.00000000	      0.00000000
     22.89642857	     -3.53063260	     -6.35214121	     -1.40318428	      1.06097324	      0.93467007	      0.40882417	     30.96253216	     -4.61138137	     -5.28541610	     56.69159350	     56.69159350	     -1.94529755	    -12.22266213	     -1.82515985	     13.10338947	     -7.66503020	     -8.19976194	     22.62679763	     22.62679763	     14.67799299	    -11.53682984	      1.99551151	    -11.73415091	      5.38142346	      1.47983766	      3.86721994	    -13.42889013	     -8.28329144	     29.51003384	     45.37718285	      0.00000000	      0.00000000	     18.95710898	    -18.17462373	      2.78773770	     44.50422734	     45.38801661	      0.00000000	      0.00000000
     22.90971429	     -3.54705344	     -6.44641555	     -1.75029180	      1.05994126	      0.93529113	      0.40886939	     30.93909423	     -4.32677606	     -5.42499548	     53.62908267	     53.62908267	     -1.42282161	    -11.65368769	     -1.84404487	     12.42012899	     -7.75327858	     -8.56967818	     22.03423291	     22.03423291	     14.75013945	    -11.39295037	      1.89099592	    -11.89509238	      5.51053029	      1.68430206	      3.39854091	    -13.57358261	     -8.57337055	     28.91204670	     45.43101397	      0.00000000	      0.00000000	     19.67027488	    -18.17517297	      2.68455838	     45.40705344	     45.42560048	      0.00000000	      0.00000000
     22.92300000	     -3.83608094	     -6.56710803	     -2.12017200	      1.05862336	      0.93537143	      0.40918138	     31.09584974	     -3.97848526	     -5.65379235	     50.23187514	     50.23187514	     -0.83235475	    -10.96722776	     -1.84951154	     12.13313658	     -7.89691954	     -8.86689766	     21.58085803	     21.58085803	     14.80806719	    -11.34559440	      1.80772299	    -11.78532311	      5.65183502	      1.69976655	      3.02976643	    -13.56740137	     -8.77038453	     28.55521644	     45.46440982	      0.00000000	      0.00000000	     20.27273420	    -18.37245534	      2.55661722	     46.09327104	     45.45786684	      0.00000000	      0.00000000
     22.93628571	     -3.99472009	     -6.63149188	     -2.52132150	      1.05746345	      0.93546559	      0.40960771	     30.83699815	     -3.65823675	     -5.95019243	     46.23569275	     46.23569275	     -0.84866635	    -10.30788524	     -3.97094507	     11.65407557	     -8.01360651	     -9.38213500	     21.06115000	     21.06115000	     14.58798273	    -11.19521867	      0.78208308	    -11.88596520	      5.71523112	      1.71595769	      3.12777110	    -13.38706461	    -10.60302207	     27.45827984	     45.70446123	      0.00000000	      0.00000000	     20.09133953	    -18.65919335	      1.94857254	     48.90306584	     45.60342672	      0.00000000	      0.00000000
     22.94957143	     -4.23654508	     -6.68992710	     -2.87375943	      1.05621869	      0.93535643	      0.41012942	     30.46452215	     -3.29582636	     -6.35176296	     41.82000316	     41.82000316	     -0.89434842	     -9.48617962	     -6.00131098	     11.33000995	     -8.08461411	     -9.63812437	     20.62217913	     20.62217913	     14.49351579	    -11.33241831	      0.33147792	    -11.85175082	      5.79907479	      1.56998587	      3.38103305	    -13.08971628	    -12.71169675	     26.65251028	     45.99267622	      0.00000000	      0.00000000	     20.22670122	    -18.79881724	      1.07516694	     50.19552572	     45.82111715	      0.00000000	      0.00000000
     22.96285714	     -4.58067263	     -6.76273305	     -3.23289436	      1.05494644	      0.93497683	      0.41083106	     30.09355093	     -2.84142517	     -6.78639271	     37.25544088	     37.25544088	     -0.18945318	     -7.99798887	     -5.70249511	     11.20552528	     -8.21192494	     -9.89872251	     20.37160539	     20.37160539	     14.63149878	    -11.35916417	      0.27336478	    -11.68428053	      5.91553930	      1.70481260	      3.18477005	    -13.15110610	    -12.79350068	     26.54803037	     46.00744991	      0.00000000	      0.00000000	     20.74470351	    -18.81141395	      0.97445209	     50.78220592	     45.84945071	      0.00000000	      0.00000000
     22.97614286	     -4.83292483	     -6.74874664	     -3.58662963	      1.05382928	      0.93455814	      0.41156650	     29.43043541	     -2.45688641	     -7.34977577	     32.43847015	     32.43847015	      0.44740416	     -5.94301397	     -5.40926943	     10.98514358	     -8.25598030	    -10.25239945	     20.15202486	     20.15202486	     14.78412306	    -11.29519411	      0.12372381	    -11.66870869	      5.96934179	      1.95936462	      3.01504698	    -13.21160045	    -12.92418488	     26.50504198	     46.02504780	      0.00000000	      0.00000000	     21.18983808	    -18.77413292	      0.77315198	     51.72405193	     45.89191023	      0.00000000	      0.00000000
     22.98942857	     -5.07014296	     -6.68117612	     -3.91438905	      1.05295149	      0.93394542	      0.41246301	     28.61166082	     -2.12423551	     -8.14609716	     27.58248190	     27.58248190	      1.06922702	     -3.23461553	     -4.84722604	     10.74678763	     -8.27800864	    -10.66823908	     19.95389698	     19.95389698	     14.91259052	    -11.08081593	     -0.36047460	    -11.63190332	      5.90715755	      1.89201963	      2.98434566	    -13.15874496	    -13.55378301	     26.81589017	     46.09181735	      0.00000000	      0.00000000	     20.84425523	    -18.85565211	     -0.13739997	     54.07390491	     46.04391772	      0.00000000	      0.00000000
     23.00271429	     -5.30829226	     -6.62971849	     -4.21098949	      1.05221979	      0.93320831	      0.41355567	     27.66566150	     -1.60415458	     -8.72155222	     22.73954922	     22.73954922	      1.42068604	     -0.93846413	     -3.75798376	     10.53641584	     -8.30024931	    -10.94456134	     19.81685300	     19.81685300	     15.11019802	    -11.09737274	     -0.53583125	    -11.50599621	      5.89123819	      2.06423259	      2.95747785	    -13.15553024	    -13.62269475	     26.80514969	     46.10397415	      0.00000000	      0.00000000	     21.18965170	    -18.77318321	     -0.31902150	     54.82233268	     46.08255672	      0.00000000	      0.00000000
     23.01600000	     -5.51453238	     -6.48594002	     -4.44856964	      1.05174019	      0.93230145	      0.41468683	     26.70644066	     -1.19031837	     -9.37105031	     18.33801218	     18.33801218	      1.68941456	      1.50555596	     -2.27931369	     10.31661118	     -8.23196824	    -11.21797719	     19.73522208	     19.73522208	     15.33113865	    -11.02254900	     -0.78067127	    -11.38119314	      5.79689226	      2.20222535	      2.93028941	    -13.15368705	    -13.69700786	     26.89666446	     46.11104603	      0.00000000	      0.00000000	     21.39537684	    -18.67044713	     -0.51558670	     55.68693099	     46.12140486	      0.00000000	      0.00000000
     23.02928571	     -5.65546169	     -6.30291555	     -4.65973662	      1.05148010	      0.93140396	      0.41587114	     26.05613726	     -0.96960875	    -10.47546488	     15.28096665	     15.28096665	      3.57949614	      4.70908891	      3.81439785	     10.00636323	     -8.13394561	    -11.57054922	     19.62774685	     19.62774685	     15.49563262	    -10.84558303	     -1.32148602	    -11.31383455	      5.63601366	      1.92898571	      3.10293460	    -13.02677192	    -13.96334469	     27.43435777	     46.14725088	      0.00000000	      0.00000000	     20.72907951	    -18.72285384	     -1.65358165	     58.01356783	     46.31097101	      0.00000000	      0.00000000
     23.04257143	     -5.80133679	     -6.13182206	     -4.79675707	      1.05153170	      0.93035134	      0.41724266	     25.27427301	     -0.59898287	    -11.04347219	     12.35076426	     12.35076426	      3.42062733	      6.17692741	      4.85741320	      9.73923220	     -8.03654339	    -11.73742160	     19.61322865	     19.61322865	     15.78704942	    -10.83161403	     -1.48399897	    -11.12524247	      5.52919594	      2.05843696	      3.16253064	    -13.04666422	    -13.93720653	     27.47550177	     46.14838062	      0.00000000	      0.00000000	     20.94565788	    -18.53156772	     -1.66660117	     58.42658180	     46.32756992	      0.00000000	      0.00000000
